<?xml version="1.0" standalone="no"?>
<!DOCTYPE svg PUBLIC "-//W3C//DTD SVG 20010904//EN"
 "http://www.w3.org/TR/2001/REC-SVG-20010904/DTD/svg10.dtd">
<svg version="1.0" xmlns="http://www.w3.org/2000/svg"
 width="704.000000pt" height="704.000000pt" viewBox="0 0 704.000000 704.000000"
 preserveAspectRatio="xMidYMid meet">
<metadata>
Created by potrace 1.14, written by Peter Selinger 2001-2017
</metadata>
<g transform="translate(0.000000,704.000000) scale(0.100000,-0.100000)"
fill="#000000" stroke="none">
<path d="M2787 6884 c-3 -4 -34 -8 -69 -9 -92 -5 -161 -14 -273 -36 -101 -20
-108 -22 -135 -31 -8 -3 -52 -17 -96 -31 -45 -15 -98 -34 -118 -42 -20 -8 -39
-15 -42 -14 -4 0 -10 -3 -13 -8 -3 -4 -22 -16 -41 -25 -41 -20 -113 -61 -120
-68 -3 -3 -25 -19 -50 -35 -25 -16 -77 -61 -117 -100 -57 -56 -80 -88 -114
-160 -39 -83 -43 -97 -46 -181 -3 -104 17 -174 73 -260 82 -124 226 -195 382
-188 136 7 244 70 323 188 61 90 82 159 85 271 1 50 5 103 8 119 7 39 39 116
49 116 4 0 7 4 7 10 0 12 55 67 100 101 56 41 158 81 244 96 55 9 251 10 301
0 22 -4 56 -10 75 -13 98 -17 374 -129 416 -168 7 -6 31 -23 55 -38 72 -45 84
-53 89 -58 3 -3 34 -30 69 -60 103 -88 214 -206 287 -305 16 -22 31 -42 35
-45 31 -27 208 -346 264 -475 9 -22 21 -49 26 -60 30 -67 149 -433 149 -459 0
-6 -287 -146 -301 -146 -6 0 -23 -6 -37 -14 -15 -7 -121 -60 -237 -117 -115
-56 -211 -106 -213 -111 -2 -4 -12 -8 -23 -8 -10 0 -19 -4 -19 -10 0 -5 -4
-10 -10 -10 -24 0 -398 -227 -544 -330 -58 -42 -238 -183 -264 -208 -11 -9
-48 -44 -83 -78 -35 -33 -91 -91 -124 -128 -33 -38 -72 -82 -87 -100 -16 -17
-28 -36 -28 -42 0 -7 -4 -14 -9 -16 -14 -5 -119 -177 -137 -225 -9 -24 -20
-43 -24 -43 -4 0 -7 -6 -7 -12 0 -7 -12 -47 -26 -88 -14 -41 -28 -86 -31 -100
-3 -14 -9 -41 -14 -61 -12 -48 -7 -249 7 -324 14 -70 47 -159 73 -197 10 -14
18 -29 18 -32 0 -13 46 -71 101 -126 67 -68 145 -128 213 -164 27 -14 54 -30
60 -35 6 -4 43 -20 81 -35 39 -15 79 -31 90 -36 27 -12 88 -30 119 -36 14 -2
36 -8 48 -12 13 -5 30 -8 38 -7 8 1 22 -2 30 -6 44 -21 379 -31 513 -16 32 4
79 10 105 13 26 3 88 14 137 25 50 11 98 22 107 24 105 23 375 137 492 208
159 96 357 269 469 409 116 145 234 361 297 543 18 50 33 97 35 105 2 8 10 42
18 75 72 280 81 632 26 980 -14 94 -19 118 -26 145 -3 14 -7 30 -9 35 -1 6 -5
25 -9 44 -3 19 -8 37 -10 41 -2 4 -6 20 -9 37 -14 75 -133 433 -196 588 -22
55 -61 136 -87 180 -46 80 -157 257 -180 285 -6 8 -40 51 -74 95 -91 116 -103
129 -229 256 -106 107 -290 263 -343 290 -12 7 -24 15 -27 20 -22 32 -371 218
-505 268 -33 13 -69 27 -80 31 -74 32 -286 87 -405 106 -19 3 -42 7 -50 9 -8
2 -49 7 -90 10 -41 4 -93 9 -115 11 -22 3 -47 5 -55 5 -66 -2 -144 1 -150 4
-4 3 -10 2 -13 -1z m1892 -2201 c6 -21 13 -54 16 -73 3 -19 7 -46 10 -60 2
-14 7 -41 9 -60 3 -19 8 -46 10 -60 3 -14 7 -52 11 -85 4 -33 8 -73 10 -90 28
-226 22 -681 -11 -833 -3 -13 -7 -43 -10 -65 -3 -23 -12 -71 -21 -107 -8 -36
-17 -76 -19 -90 -3 -14 -14 -54 -26 -90 -12 -36 -23 -70 -24 -77 -3 -17 -75
-184 -96 -220 -10 -18 -28 -50 -39 -70 -93 -165 -258 -316 -419 -384 -150 -64
-199 -74 -375 -73 -135 0 -223 25 -329 94 -155 102 -251 262 -292 485 -9 49
-10 267 -1 315 3 19 8 54 12 77 13 90 69 252 126 365 30 60 107 188 119 198 3
3 24 30 45 60 64 88 195 223 320 331 62 53 222 171 255 189 14 7 27 16 30 20
3 3 41 27 85 53 44 26 87 52 95 57 24 15 238 120 245 120 4 0 21 6 38 14 18 8
55 24 82 36 28 12 68 30 90 40 22 11 41 19 42 20 1 0 7 -17 12 -37z"/>
<path d="M3276 1043 c-4 -4 -17 -8 -29 -10 -70 -10 -177 -99 -177 -147 0 -8
-4 -17 -9 -20 -14 -9 -3 -103 18 -144 35 -69 112 -113 296 -172 104 -34 146
-82 140 -162 -4 -60 -26 -94 -81 -122 -45 -24 -158 -31 -211 -12 -42 14 -93
61 -94 87 -1 10 -2 24 -3 31 -2 17 -44 37 -67 31 -35 -10 -9 -110 43 -166 46
-50 97 -70 183 -73 193 -5 304 79 311 236 5 125 -44 177 -226 241 -164 57
-203 82 -224 143 -36 104 50 189 191 189 75 -1 136 -31 154 -77 19 -47 26 -53
59 -48 27 4 30 8 28 32 -9 79 -106 148 -218 155 -34 3 -65 7 -69 10 -5 2 -11
1 -15 -2z"/>
<path d="M565 999 c-9 -14 -9 -705 0 -719 3 -5 2 -10 -3 -10 -11 0 -5 -82 7
-89 5 -4 116 -6 247 -6 l238 0 1 30 c0 27 -3 30 -33 32 -18 1 -40 4 -48 7 -8
3 -14 1 -14 -5 0 -6 -5 -7 -11 -4 -6 4 -34 7 -62 6 -60 -1 -133 0 -197 2 -41
2 -45 4 -46 28 -1 15 -4 34 -7 43 -3 8 -2 18 3 21 5 3 5 18 0 35 -5 17 -5 30
0 30 5 0 5 13 0 30 -5 17 -5 30 0 30 5 0 5 13 0 29 -6 21 -5 31 3 35 9 3 9 5
0 5 -8 1 -9 10 -4 29 5 15 5 36 1 47 -4 11 -3 25 2 32 5 7 5 14 -1 17 -6 4 -7
16 -2 29 5 12 5 31 1 42 -4 11 -3 26 2 33 7 8 7 12 0 12 -7 0 -8 10 -3 28 5
15 5 37 0 49 -4 12 -4 25 1 28 5 3 5 18 0 35 -5 16 -5 30 -1 32 4 2 4 18 -1
36 -7 27 -13 32 -38 32 -16 0 -32 -5 -35 -11z"/>
<path d="M1266 598 c1 -227 2 -416 3 -419 0 -4 18 -6 38 -5 l38 2 0 405 c1
222 -1 410 -3 417 -2 6 -20 12 -41 12 l-36 0 1 -412z"/>
<path d="M1635 997 c-2 -6 -3 -194 -2 -417 l2 -404 23 1 c12 0 25 1 30 2 4 1
7 85 7 189 -1 103 1 192 2 198 3 6 66 10 184 9 99 0 184 2 188 5 13 8 19 57 7
58 -12 1 -210 2 -236 1 -86 -3 -139 4 -142 20 -2 9 -4 77 -3 151 l0 135 200 0
200 0 0 30 -1 30 -227 2 c-173 2 -229 0 -232 -10z"/>
<path d="M2339 1002 c-1 -4 -2 -190 -3 -414 -1 -264 3 -409 9 -411 6 -2 116
-3 245 -2 l235 0 3 32 c3 25 -1 32 -15 32 -10 0 -45 0 -78 0 -33 1 -73 0 -90
-2 -16 -1 -42 1 -57 5 -16 3 -28 3 -28 -2 0 -5 -12 -5 -27 -1 -27 7 -86 5
-110 -3 -19 -8 -22 19 -22 169 1 77 -1 147 -3 155 -3 12 25 15 187 16 105 1
196 2 203 3 14 1 16 47 2 56 -6 3 -95 6 -199 6 l-188 0 -1 152 -1 152 207 0
207 0 1 32 0 32 -238 0 c-131 0 -239 -3 -239 -7z"/>
<path d="M3744 977 l2 -32 129 0 c80 1 132 -3 136 -10 3 -5 5 -178 5 -383 -1
-204 1 -372 4 -373 43 -9 60 -4 60 15 1 12 2 185 3 386 l2 365 132 0 131 -1 5
29 c2 15 1 30 -3 32 -3 2 -141 4 -307 4 l-301 0 2 -32z"/>
<path d="M4440 1004 c0 -10 23 -48 97 -162 40 -62 73 -116 73 -121 0 -5 3 -11
8 -13 4 -2 32 -43 63 -93 l55 -90 -1 -168 c0 -104 3 -171 10 -176 8 -7 23 -8
66 -2 4 1 6 81 5 178 -1 154 1 181 17 211 10 19 23 39 28 46 5 6 33 47 61 91
29 44 82 126 120 183 37 56 68 107 68 112 0 13 -46 13 -71 0 -10 -6 -19 -17
-19 -25 0 -7 -3 -15 -8 -17 -4 -1 -47 -66 -96 -143 -49 -77 -99 -155 -111
-173 l-23 -33 -43 68 c-24 37 -46 73 -49 78 -3 6 -22 36 -42 68 -21 31 -38 62
-38 67 0 6 -3 10 -8 10 -4 0 -22 25 -40 55 -32 53 -34 55 -78 55 -24 0 -44 -3
-44 -6z"/>
<path d="M5303 998 c-12 -20 -10 -808 2 -817 5 -4 116 -7 245 -6 l235 1 3 32
3 32 -53 1 c-69 1 -175 -1 -213 -4 -16 -1 -42 1 -57 5 -16 3 -28 3 -28 -2 0
-6 -10 -6 -22 -1 -13 4 -27 7 -33 5 -7 -3 -10 124 -9 368 0 205 -1 379 -4 386
-2 6 -17 12 -32 12 -16 0 -32 -6 -37 -12z"/>
<path d="M6000 967 c-3 -345 0 -780 5 -785 3 -4 118 -6 255 -7 l250 0 0 32 c0
29 -3 33 -27 34 -16 1 -32 0 -38 -1 -5 -1 -32 -1 -60 0 -58 2 -177 1 -220 -3
-16 -1 -42 1 -57 5 -18 4 -28 3 -28 -4 0 -6 -3 -8 -7 -4 -4 4 -8 83 -8 175
l-1 167 199 0 c187 -1 231 3 215 20 -4 4 -3 15 3 25 9 18 4 19 -78 20 -48 0
-144 1 -213 2 l-125 2 -1 142 c0 78 2 146 5 151 3 4 100 8 215 7 196 0 209 1
212 19 6 44 5 44 -252 45 l-244 0 0 -42z"/>
</g>
</svg>
